<svg width="51" height="50" viewBox="0 0 51 50" fill="none" xmlns="http://www.w3.org/2000/svg">
<g filter="url(#filter0_d_154_1061)">
<path d="M37.9086 25.9202C37.3444 26.4474 37.0756 27.2198 37.1881 27.9842L38.9 38.5504C39.0443 39.4459 38.6512 40.3424 37.8947 40.8448C37.1529 41.3666 36.1778 41.4132 35.3871 40.9706L25.9962 35.8538C25.6697 35.6723 25.3054 35.5714 24.931 35.5539L24.3509 35.5434C24.1491 35.5697 23.951 35.6304 23.7694 35.7256L14.1964 40.5218C13.7233 40.7488 13.191 40.8226 12.6723 40.7297C11.4094 40.467 10.5858 39.2443 10.8166 37.9744L12.9128 27.4773C13.053 26.7111 12.8125 25.9252 12.268 25.3692L4.67424 17.7369C4.03916 17.098 3.83149 16.152 4.14231 15.3076C4.44453 14.4651 5.18784 13.8598 6.07443 13.7367L16.7412 12.3863C17.5519 12.3175 18.2715 11.8381 18.6486 11.1169L23.5109 1.5907C23.6261 1.37866 23.7731 1.18433 23.9495 1.02051L24.1449 0.874166C24.2475 0.76468 24.3647 0.674732 24.4945 0.602142L24.7294 0.520752L25.096 0.377514L25.9972 0.393867C26.8006 0.491955 27.5004 0.986446 27.8576 1.71241L32.434 11.3671C32.7638 12.0732 33.4207 12.5712 34.187 12.7029L44.7978 14.4393C45.6945 14.5841 46.4346 15.2185 46.7166 16.0801C46.9814 16.9436 46.7225 17.8811 46.0519 18.4877L37.9086 25.9202Z" fill="#FECC00"/>
</g>
<defs>
<filter id="filter0_d_154_1061" x="0" y="0.37793" width="50.819" height="48.8945" filterUnits="userSpaceOnUse" color-interpolation-filters="sRGB">
<feFlood flood-opacity="0" result="BackgroundImageFix"/>
<feColorMatrix in="SourceAlpha" type="matrix" values="0 0 0 0 0 0 0 0 0 0 0 0 0 0 0 0 0 0 127 0" result="hardAlpha"/>
<feOffset dy="4"/>
<feGaussianBlur stdDeviation="2"/>
<feComposite in2="hardAlpha" operator="out"/>
<feColorMatrix type="matrix" values="0 0 0 0 0 0 0 0 0 0 0 0 0 0 0 0 0 0 0.25 0"/>
<feBlend mode="normal" in2="BackgroundImageFix" result="effect1_dropShadow_154_1061"/>
<feBlend mode="normal" in="SourceGraphic" in2="effect1_dropShadow_154_1061" result="shape"/>
</filter>
</defs>
</svg>
